<svg xmlns="http://www.w3.org/2000/svg" version="1.1" xmlns:xlink="http://www.w3.org/1999/xlink" xmlns:svgjs="http://svgjs.dev/svgjs" width="1000" height="346" viewBox="0 0 1000 346"><g transform="matrix(1,0,0,1,0.6031976539588868,0.3005508474576004)"><svg viewBox="0 0 341 118" data-background-color="#ffffff" preserveAspectRatio="xMidYMid meet" height="346" width="1000" xmlns="http://www.w3.org/2000/svg" xmlns:xlink="http://www.w3.org/1999/xlink"><g id="tight-bounds" transform="matrix(1,0,0,1,-0.2056903999999804,-0.10249999999999204)"><svg viewBox="0 0 341.41138079999996 118.20457991970977" height="118.20457991970977" width="341.41138079999996"><g><svg viewBox="0 0 341.41138079999996 118.20457991970977" height="118.20457991970977" width="341.41138079999996"><g><svg viewBox="0 0 341.41138079999996 118.20457991970977" height="118.20457991970977" width="341.41138079999996"><g><svg viewBox="0 0 341.41138079999996 118.20457991970977" height="118.20457991970977" width="341.41138079999996"><g><path d="M0 118.205v-118.205h341.411v118.205z" fill="#000000" stroke="transparent" stroke-width="0" rx="0%" data-fill-palette-color="tertiary"></path><path d="M4.509 113.696v-109.187h332.393v109.187z" fill="#ffffff" stroke="transparent" stroke-width="0" rx="0%" data-fill-palette-color="quaternary"></path><path d="M13.527 104.677v-91.15h314.357v91.15z" fill="#000000" stroke="transparent" stroke-width="0" data-fill-palette-color="tertiary"></path></g><g transform="matrix(1,0,0,1,27.054309599999996,27.054309599999996)"><svg viewBox="0 0 287.30276159999994 64.09596071970978" height="64.09596071970978" width="287.30276159999994"><g><svg viewBox="0 0 287.30276159999994 64.09596071970978" height="64.09596071970978" width="287.30276159999994"><g transform="matrix(1,0,0,1,0,0)"><svg width="287.30276159999994" viewBox="2 -35.900001525878906 165.38999938964844 36.900001525878906" height="64.09596071970978" data-palette-color="#ffffff"><path d="M30.5-6.9L28.8 0 2 0 2-1.4 3.7-1.4Q5.15-1.4 5.63-1.95 6.1-2.5 6.1-3.7L6.1-3.7 6.1-31.3Q6.1-32.3 5.48-32.95 4.85-33.6 3.7-33.6L3.7-33.6 2-33.6 2-35 28.4-35 28.8-28.1 27.4-27.8Q27.4-29.6 25.95-31.25 24.5-32.9 21.9-32.9L21.9-32.9 12.8-32.9Q11.3-32.9 10.85-32.33 10.4-31.75 10.4-30.7L10.4-30.7 10.4-19.3 20.4-19.3Q21.15-19.3 21.55-19.38 21.95-19.45 22.28-19.9 22.6-20.35 22.6-21.2L22.6-21.2 22.6-23.5 24.1-23.5 24.1-13.1 22.6-13.1 22.6-15.2Q22.6-16.45 22.05-16.82 21.5-17.2 20.4-17.2L20.4-17.2 10.4-17.2 10.4-4.3Q10.4-3.25 10.85-2.68 11.3-2.1 12.8-2.1L12.8-2.1 22.3-2.1Q24.95-2.1 26.98-3.8 29-5.5 29.1-7.1L29.1-7.1 30.5-6.9ZM33.5-2.4L33.5-2.4 34.2-8.9 35.9-8.8Q35.9-6.05 39.17-4.38 42.45-2.7 46.62-2.7 50.8-2.7 52.9-3.98 55-5.25 55-7.2L55-7.2Q55-10.5 51.5-13.1L51.5-13.1Q50.05-14.15 48.45-14.95L48.45-14.95Q44.8-16.85 43.87-17.38 42.95-17.9 41.8-18.45 40.65-19 39.67-19.63 38.7-20.25 37.6-21.15L37.6-21.15Q35.1-23.15 35.1-25.63 35.1-28.1 35.97-29.95 36.85-31.8 38.17-32.85 39.5-33.9 41.3-34.6L41.3-34.6Q44.35-35.7 48.12-35.7 51.9-35.7 55.4-33.8L55.4-33.8 54.8-28 53.1-28Q53.1-32.7 45.2-32.7L45.2-32.7Q41.55-32.7 39.72-31.55 37.9-30.4 37.9-28.4L37.9-28.4Q37.9-25.2 48.3-20.7L48.3-20.7Q55.15-17.75 57.05-14.15L57.05-14.15Q58-12.35 58-10.2L58-10.2Q58-5 53.82-2.15 49.65 0.7 43.75 0.7 37.85 0.7 33.5-2.4ZM98-1.4L98 0 85.3 0 85.3-1.4 86.9-1.4Q88-1.4 88.55-1.78 89.09-2.15 89.2-2.55 89.3-2.95 89.3-3.7L89.3-3.7 89.3-17.1 69.9-17.1 69.9-3.7Q69.9-2.6 70.34-2 70.8-1.4 72.3-1.4L72.3-1.4 74.2-1.4 74.2 0 61.5 0 61.5-1.4 63.2-1.4Q64.7-1.4 65.15-2 65.59-2.6 65.59-3.7L65.59-3.7 65.59-31.3Q65.59-32.4 65.15-33 64.7-33.6 63.2-33.6L63.2-33.6 61.5-33.6 61.5-35 74.2-35 74.2-33.6 72.3-33.6Q70.8-33.6 70.34-33 69.9-32.4 69.9-31.3L69.9-31.3 69.9-19.3 89.3-19.3 89.3-31.3Q89.3-32.05 89.2-32.45 89.09-32.85 88.55-33.23 88-33.6 86.9-33.6L86.9-33.6 85.3-33.6 85.3-35 98-35 98-33.6 96.09-33.6Q95-33.6 94.45-33.23 93.9-32.85 93.8-32.45 93.7-32.05 93.7-31.3L93.7-31.3 93.7-3.7Q93.7-2.95 93.8-2.55 93.9-2.15 94.45-1.78 95-1.4 96.09-1.4L96.09-1.4 98-1.4ZM117.09 1L117.09 1Q110.54 1 106.17-4.05 101.79-9.1 101.79-15.7L101.79-15.7Q101.79-19.8 103.59-23.6 105.39-27.4 108.22-30.05 111.04-32.7 114.47-34.3 117.89-35.9 121.09-35.9L121.09-35.9Q127.59-35.9 131.99-30.85 136.39-25.8 136.39-19.2L136.39-19.2Q136.39-14.3 133.74-9.63 131.09-4.95 126.57-1.98 122.04 1 117.09 1ZM120.19-2.8L120.19-2.8Q125.64-2.8 129.37-6.8 133.09-10.8 133.09-16.7 133.09-22.6 128.77-27.3 124.44-32 118.29-32L118.29-32Q113.04-32 109.07-28.23 105.09-24.45 105.09-19.2L105.09-19.2Q105.09-12.4 109.27-7.6 113.44-2.8 120.19-2.8ZM150.29-15.7L149.89-17.7 152.29-17.6Q156.04-17.6 159.19-18.8L159.19-18.8Q161.04-19.5 162.16-21 163.29-22.5 163.29-24.7L163.29-24.7Q163.29-32.6 153.79-32.6L153.79-32.6 148.59-32.4 148.59-3.6Q148.59-2.9 148.69-2.5 148.79-2.1 149.34-1.75 149.89-1.4 150.99-1.4L150.99-1.4 152.89-1.4 152.89 0 140.19 0 140.19-1.4 141.79-1.4Q142.89-1.4 143.44-1.75 143.99-2.1 144.09-2.5 144.19-2.9 144.19-3.6L144.19-3.6 144.19-31.3Q144.19-32.45 143.72-32.98 143.24-33.5 141.79-33.5L141.79-33.5 140.19-33.5 140.19-35 147.89-35 157.39-35.5Q161.89-35.5 164.64-33.55 167.39-31.6 167.39-28.08 167.39-24.55 165.76-21.93 164.14-19.3 161.74-18L161.74-18Q157.19-15.6 153.59-15.6L153.59-15.6Q151.49-15.6 150.29-15.7L150.29-15.7Z" opacity="1" transform="matrix(1,0,0,1,0,0)" fill="#ffffff" class="undefined-text-0" data-fill-palette-color="quaternary" id="text-0"></path></svg></g></svg></g></svg></g></svg></g><g></g></svg></g></svg></g><defs></defs></svg><rect width="341.41138079999996" height="118.20457991970977" fill="none" stroke="none" visibility="hidden"></rect></g></svg></g></svg>